<svg width="156" height="118" viewBox="0 0 156 118" xmlns="http://www.w3.org/2000/svg" xmlns:xlink="http://www.w3.org/1999/xlink"><title>logo</title>
    <defs>
        <path id="a" d="M0 .118h155.295V117H0V.118z"></path>
    </defs>
    <g transform="translate(-1 -.75)" fill="none" fill-rule="evenodd">
        <g transform="translate(1 1)">
            <mask id="b" fill="#fff">
                <use xlink:href="#a"></use>
            </mask>
            <path d="M47.8 42.91c.718.743.446 1.59.346 1.834-.102.247-.518 1.052-1.573 1.052h-22.69c-1.056 0-1.47-.805-1.574-1.052-.1-.243-.37-1.09.345-1.833l12.573-11.665L47.8 42.91zM2.18 32.02a2.18 2.18 0 0 0 2.18-2.182V6.503c0-1.056.804-1.473 1.05-1.575.248-.102 1.11-.377 1.855.37l.06.057L32.023 28.27 19.656 39.746l-.06.057c-1.766 1.768-2.27 4.3-1.313 6.612.956 2.31 3.1 3.744 5.6 3.744h22.69c2.498 0 4.644-1.435 5.6-3.744.955-2.31.452-4.844-1.314-6.612l-.06-.057L38.433 28.27 63.13 5.356l.06-.057c.747-.748 1.61-.472 1.856-.37.246.102 1.05.52 1.05 1.575v23.335a2.18 2.18 0 0 0 2.18 2.18 2.18 2.18 0 0 0 2.18-2.18V6.503c0-2.5-1.435-4.648-3.742-5.604-2.293-.953-4.81-.46-6.574 1.28L35.228 25.298 10.315 2.18C8.55.44 6.035-.052 3.743.9 1.433 1.854 0 4 0 6.502v23.335a2.18 2.18 0 0 0 2.18 2.18z" fill="#1D1C1B" mask="url(#b)"></path>
        </g>
        <path d="M86.77 1.118a2.18 2.18 0 0 0-2.18 2.18v55.875h4.357V3.3a2.18 2.18 0 0 0-2.178-2.182zM99.03 50.535a2.18 2.18 0 0 0 2.18-2.182 2.18 2.18 0 0 0-2.18-2.18H88.947v4.362h10.085zm-24.527-4.362a2.18 2.18 0 0 0 0 4.362H84.59v-4.362H74.504zM154.115 89.505a2.18 2.18 0 0 0-2.18 2.18v12.9c0 4.99-4.057 9.053-9.044 9.053-4.986 0-9.044-4.062-9.044-9.053v-11.72c0-7.396-6.013-13.414-13.404-13.414-7.39 0-13.404 6.02-13.404 13.416v11.72c0 4.99-4.057 9.052-9.045 9.052-4.988 0-9.046-4.062-9.046-9.053V68.887H84.59v35.698C84.59 111.982 90.6 118 97.992 118c7.39 0 13.403-6.018 13.403-13.415v-11.72c0-4.99 4.06-9.05 9.046-9.05 4.988 0 9.045 4.06 9.045 9.05v11.72c0 7.397 6.013 13.415 13.404 13.415 7.392 0 13.405-6.018 13.405-13.415v-12.9a2.18 2.18 0 0 0-2.18-2.18M23.655 74.068c-.717-.74-.447-1.588-.345-1.832.102-.247.517-1.052 1.573-1.052h22.69c1.056 0 1.47.805 1.573 1.052.1.244.37 1.09-.345 1.832L36.23 85.735 23.655 74.068zm45.62 7.938a2.18 2.18 0 0 0-2.18 2.18v26.29c0 1.057-.803 1.474-1.05 1.576-.246.103-1.108.378-1.855-.37l-.06-.057L39.433 88.71 51.8 77.234l.06-.058c1.765-1.767 2.27-4.3 1.312-6.61-.956-2.31-3.1-3.745-5.6-3.745h-22.69c-2.497 0-4.642 1.435-5.6 3.744-.955 2.31-.45 4.844 1.315 6.61l.06.06 12.365 11.473-24.697 22.915-.06.057c-.746.748-1.608.473-1.854.37-.246-.102-1.05-.52-1.05-1.575v-26.29a2.18 2.18 0 0 0-2.18-2.18A2.18 2.18 0 0 0 1 84.186v26.29c0 2.5 1.434 4.648 3.742 5.604 2.295.953 4.808.46 6.573-1.28l24.913-23.117L61.14 114.8c1.17 1.154 2.67 1.76 4.215 1.76.787 0 1.585-.158 2.36-.48 2.307-.955 3.74-3.103 3.74-5.603v-26.29a2.18 2.18 0 0 0-2.18-2.18z" fill="#1D1C1B"></path>
        <rect fill="#04E4A4" x="72" y="61.64" width="29" height="4.69" rx="3"></rect>
    </g>
</svg>
