<?xml version="1.0" encoding="UTF-8" standalone="no"?>
<!-- Created with Inkscape (http://www.inkscape.org/) -->

<svg
   xmlns:dc="http://purl.org/dc/elements/1.1/"
   xmlns:cc="http://creativecommons.org/ns#"
   xmlns:rdf="http://www.w3.org/1999/02/22-rdf-syntax-ns#"
   xmlns:svg="http://www.w3.org/2000/svg"
   xmlns="http://www.w3.org/2000/svg"
   xmlns:sodipodi="http://sodipodi.sourceforge.net/DTD/sodipodi-0.dtd"
   xmlns:inkscape="http://www.inkscape.org/namespaces/inkscape"
   width="64"
   height="64"
   id="svg2"
   version="1.1"
   inkscape:version="0.48.3.1 r9886"
   sodipodi:docname="icon.svg"
   inkscape:export-filename="/home/nico/Pictures/logo_130x60.png"
   inkscape:export-xdpi="23.4"
   inkscape:export-ydpi="23.4">
  <defs
     id="defs4" />
  <sodipodi:namedview
     id="base"
     pagecolor="#ffffff"
     bordercolor="#666666"
     borderopacity="1.0"
     inkscape:pageopacity="0.0"
     inkscape:pageshadow="2"
     inkscape:zoom="5.6568544"
     inkscape:cx="10.355112"
     inkscape:cy="18.014487"
     inkscape:document-units="px"
     inkscape:current-layer="layer1"
     showgrid="false"
     inkscape:window-width="1572"
     inkscape:window-height="943"
     inkscape:window-x="162"
     inkscape:window-y="97"
     inkscape:window-maximized="0"
     inkscape:snap-global="true"
     showguides="true"
     inkscape:object-nodes="true"
     inkscape:snap-smooth-nodes="true"
     inkscape:guide-bbox="true">
    <inkscape:grid
       type="xygrid"
       id="grid3776"
       empspacing="5"
       visible="true"
       enabled="true"
       snapvisiblegridlinesonly="true"
       spacingx="5px"
       spacingy="5px" />
  </sodipodi:namedview>
  <metadata
     id="metadata7">
    <rdf:RDF>
      <cc:Work
         rdf:about="">
        <dc:format>image/svg+xml</dc:format>
        <dc:type
           rdf:resource="http://purl.org/dc/dcmitype/StillImage" />
        <dc:title />
      </cc:Work>
    </rdf:RDF>
  </metadata>
  <g
     inkscape:label="Layer 1"
     inkscape:groupmode="layer"
     id="layer1"
     transform="translate(0,-988.36218)">
    <path
       inkscape:connector-curvature="0"
       id="path3935"
       style="font-size:57.48060608px;font-style:normal;font-variant:normal;font-weight:normal;font-stretch:normal;line-height:125%;letter-spacing:0px;word-spacing:0px;fill:#2c2c2c;fill-opacity:1;stroke:none;font-family:DeBorstel;-inkscape-font-specification:DeBorstel"
       d="m 11.900017,1004.7499 c -8e-6,-0.5971 0.109388,-1.1566 0.328235,-1.6888 0.218845,-0.5308 0.515755,-0.9842 0.890927,-1.3593 0.40637,-0.4054 0.87528,-0.7223 1.406722,-0.9383 0.53138,-0.2507 1.094103,-0.376 1.688068,-0.376 0.593961,7e-4 1.156618,0.1248 1.688068,0.376 0.562708,0.2211 1.031581,0.5307 1.406726,0.9383 0.406368,0.3758 0.718977,0.8285 0.937815,1.3593 0.250029,0.5307 0.375117,1.0946 0.375117,1.6888 -2.3e-5,3.3441 -0.328234,6.4239 -0.984704,9.2372 -0.625217,2.8137 -1.438004,5.4392 -2.438319,7.8776 -1.000353,2.4065 -2.094466,4.6577 -3.282353,6.7519 -1.187917,2.0632 -2.328917,4.0481 -3.423038,5.9551 -0.5627083,1.0009 -0.9847107,1.8759 -1.2660423,2.6263 -0.2813556,0.7225 -0.51583,1.3129 -0.7033514,1.7816 -0.1875933,0.4718 -0.3751134,0.8131 -0.5627075,1.032 -0.1875948,0.2505 -0.484575,0.3759 -0.8909292,0.3759 -0.3438617,0 -0.7033487,-0.1697 -1.0784862,-0.516 -0.3751139,-0.3465 -0.7346027,-0.8757 -1.078486,-1.5943 -0.3438615,-0.7505 -0.6252153,-1.6725 -0.8440329,-2.7665 -0.2188477,-1.1256 -0.3282352,-2.47 -0.3282352,-4.0326 -6.8e-6,-2.6882 0.2501015,-5.1429 0.7502442,-7.3623 0.5002015,-2.2194 1.1097533,-4.2354 1.8287455,-6.0488 0.7189747,-1.8441 1.5004949,-3.5166 2.3445439,-5.0174 0.8440191,-1.5 1.5942701,-2.86 2.2507551,-4.0792 0.2501,-0.5011 0.468875,-0.9692 0.656469,-1.4071 0.218847,-0.4349 0.406367,-0.875 0.562709,-1.3129 -0.09376,-0.2505 -0.156342,-0.4863 -0.187595,-0.7001 -0.03095,-0.2506 -0.04718,-0.516 -0.04718,-0.7969" />
    <path
       inkscape:connector-curvature="0"
       id="path3947"
       style="font-size:57.48060608px;font-style:normal;font-variant:normal;font-weight:normal;font-stretch:normal;line-height:125%;letter-spacing:0px;word-spacing:0px;fill:#dd5448;fill-opacity:1;stroke:none;font-family:DeBorstel;-inkscape-font-specification:DeBorstel"
       d="m 30.118428,1006.3482 c -1.5e-5,-0.823 0.190935,-1.5137 0.572944,-2.0715 0.411316,-0.589 0.925497,-1.0579 1.542518,-1.4105 0.646382,-0.3811 1.380908,-0.6582 2.203601,-0.8377 0.822664,-0.2077 1.645342,-0.3532 2.468041,-0.4434 0.852033,-0.1175 1.660024,-0.1731 2.42396,-0.1731 0.793275,0 1.483733,-0.069 2.071386,-0.069 1.615947,0 3.246616,0.1033 4.892001,0.3118 1.645322,0.2078 3.231915,0.5404 4.759774,1.0136 1.527801,0.4433 2.9528,1.0141 4.274993,1.7187 1.351506,0.7052 2.512063,1.5575 3.481691,2.5565 0.998926,0.999 1.777529,2.1594 2.335813,3.482 0.587564,1.2928 0.881409,2.7469 0.881442,4.3626 -3.3e-5,2.4975 -0.455446,4.8191 -1.366235,6.964 -0.881476,2.1441 -2.086115,4.0985 -3.613903,5.8611 -1.527872,1.7631 -3.334825,3.335 -5.420864,4.7159 -2.056726,1.3807 -4.24564,2.5564 -6.566731,3.5256 -2.321148,0.9401 -4.73042,1.6454 -7.227816,2.1159 -2.468056,0.4987 -4.892015,0.7488 -7.271891,0.7488 -1.997943,0 -3.790201,-0.2355 -5.376787,-0.7053 -1.557219,-0.4711 -2.894072,-1.0725 -4.010559,-1.8067 -1.116495,-0.7643 -1.968549,-1.631 -2.556173,-2.6002 -0.587633,-0.9698 -0.881449,-1.9537 -0.881449,-2.9527 0,-0.1731 0.01455,-0.381 0.04434,-0.6165 7e-6,-0.2633 0.176317,-0.3949 0.528883,-0.3949 0.176247,0 0.426002,0.076 0.749221,0.2216 0.352565,0.1176 0.749228,0.2633 1.189951,0.4434 0.44069,0.1733 0.925511,0.3394 1.454373,0.485 0.558259,0.1455 1.131182,0.2218 1.718807,0.2218 1.821639,-2.2336 3.437615,-4.3488 4.847933,-6.3469 0.617007,-0.8521 1.204618,-1.7187 1.762876,-2.6 0.587631,-0.8813 1.116481,-1.7188 1.586593,-2.5121 0.470064,-0.8231 0.852047,-1.5719 1.145876,-2.2482 0.293816,-0.672 0.455378,-1.2338 0.484821,-1.6744 -0.05889,-0.07 -0.117571,-0.1455 -0.176317,-0.2632 -0.117571,-0.2357 -0.176318,-0.4712 -0.176318,-0.7047 -1.4e-5,-0.6789 0.235068,-1.2491 0.705152,-1.7189 0.499439,-0.471 1.145862,-0.7051 1.939173,-0.7051 0.38194,0 0.749208,0.1315 1.101799,0.3949 0.352566,0.2632 0.66107,0.6303 0.925519,1.1022 0.264371,0.4434 0.470064,0.9692 0.617006,1.5865 0.146874,0.5889 0.22031,1.2193 0.22038,1.8948 -2e-5,1.4694 -0.264442,2.9527 -0.793297,4.4512 -0.499508,1.4695 -1.057745,2.8211 -1.674738,4.0549 -0.734554,1.4396 -1.557233,2.8349 -2.468035,4.1867 1.527816,0 3.143791,-0.1733 4.847926,-0.5265 1.704098,-0.3534 3.37883,-0.8667 5.024214,-1.543 1.674704,-0.672 3.275991,-1.4686 4.803849,-2.3797 1.527803,-0.9402 2.864656,-1.9981 4.010559,-3.1729 1.175224,-1.1752 2.100735,-2.4388 2.776532,-3.7904 0.705124,-1.3517 1.057696,-2.7767 1.057739,-4.2752 -4.3e-5,-1.6448 -0.396698,-3.0262 -1.189953,-4.1424 -0.763943,-1.1167 -1.777605,-2.0126 -3.040965,-2.6887 -1.234056,-0.6789 -2.614972,-1.1459 -4.142781,-1.4098 -1.52785,-0.291 -3.040986,-0.4434 -4.539415,-0.4434 -0.969607,0 -1.836353,0.09 -2.600249,0.2632 -0.763936,0.1455 -1.483782,0.3533 -2.15953,0.6167 -2.2e-5,0.561 -0.117571,1.0869 -0.352566,1.5864 -0.205693,0.4711 -0.499509,0.8957 -0.881435,1.2782 -0.38201,0.3533 -0.822692,0.6305 -1.322165,0.837 -0.470135,0.2078 -0.984289,0.3116 -1.542518,0.3116 -1.14589,0 -2.115476,-0.3948 -2.90876,-1.1902 -0.793309,-0.7931 -1.189951,-1.7624 -1.189945,-2.909" />
  </g>
</svg>
