<?xml version="1.0" encoding="UTF-8" standalone="no"?>
<!-- Created with Inkscape (http://www.inkscape.org/) -->

<svg
   xmlns:dc="http://purl.org/dc/elements/1.1/"
   xmlns:cc="http://creativecommons.org/ns#"
   xmlns:rdf="http://www.w3.org/1999/02/22-rdf-syntax-ns#"
   xmlns:svg="http://www.w3.org/2000/svg"
   xmlns="http://www.w3.org/2000/svg"
   xmlns:sodipodi="http://sodipodi.sourceforge.net/DTD/sodipodi-0.dtd"
   xmlns:inkscape="http://www.inkscape.org/namespaces/inkscape"
   width="500"
   height="230"
   id="svg2"
   version="1.1"
   inkscape:version="0.48.3.1 r9886"
   sodipodi:docname="logo7c.svg"
   inkscape:export-filename="/home/nico/Pictures/logo_130x60.png"
   inkscape:export-xdpi="23.4"
   inkscape:export-ydpi="23.4">
  <defs
     id="defs4" />
  <sodipodi:namedview
     id="base"
     pagecolor="#ffffff"
     bordercolor="#666666"
     borderopacity="1.0"
     inkscape:pageopacity="0.0"
     inkscape:pageshadow="2"
     inkscape:zoom="1.4142136"
     inkscape:cx="277.58064"
     inkscape:cy="123.05181"
     inkscape:document-units="px"
     inkscape:current-layer="layer1"
     showgrid="false"
     inkscape:window-width="1572"
     inkscape:window-height="943"
     inkscape:window-x="171"
     inkscape:window-y="174"
     inkscape:window-maximized="0"
     inkscape:snap-global="true"
     showguides="true"
     inkscape:object-nodes="true"
     inkscape:snap-smooth-nodes="true"
     inkscape:guide-bbox="true">
    <inkscape:grid
       type="xygrid"
       id="grid3776"
       empspacing="5"
       visible="true"
       enabled="true"
       snapvisiblegridlinesonly="true"
       spacingx="5px"
       spacingy="5px" />
  </sodipodi:namedview>
  <metadata
     id="metadata7">
    <rdf:RDF>
      <cc:Work
         rdf:about="">
        <dc:format>image/svg+xml</dc:format>
        <dc:type
           rdf:resource="http://purl.org/dc/dcmitype/StillImage" />
        <dc:title></dc:title>
      </cc:Work>
    </rdf:RDF>
  </metadata>
  <g
     inkscape:label="Layer 1"
     inkscape:groupmode="layer"
     id="layer1"
     transform="translate(0,-822.36218)">
    <g
       style="font-size:57.48060608px;font-style:normal;font-variant:normal;font-weight:normal;font-stretch:normal;line-height:125%;letter-spacing:0px;word-spacing:0px;fill:#000000;fill-opacity:1;stroke:none;font-family:DeBorstel;-inkscape-font-specification:DeBorstel"
       id="text3024"
       transform="matrix(1.1290227,0,0,1.1290227,-34.685484,65.574699)">
      <path
         d="m 126.30003,748.90912 c -1e-5,-0.72805 0.13411,-1.41781 0.40236,-2.0693 0.26824,-0.65141 0.63228,-1.20705 1.09214,-1.66694 0.49815,-0.49812 1.07295,-0.88132 1.72441,-1.14961 0.65144,-0.30652 1.3412,-0.4598 2.06931,-0.45985 0.72807,5e-5 1.41783,0.15333 2.0693,0.45985 0.68975,0.26829 1.26455,0.65149 1.72442,1.14961 0.49814,0.45989 0.88134,1.01553 1.14961,1.66694 0.30654,0.65149 0.45982,1.34125 0.45984,2.0693 -2e-5,4.10032 -0.40238,7.87487 -1.20709,11.32368 -0.76643,3.44886 -1.76276,6.66777 -2.98899,9.65674 -1.22627,2.95069 -2.56748,5.70975 -4.02364,8.27721 -1.45619,2.52915 -2.85488,4.9625 -4.19609,7.30003 -0.68977,1.22626 -1.2071,2.29923 -1.55197,3.21892 -0.3449,0.88137 -0.6323,1.60945 -0.86221,2.18426 -0.22993,0.57481 -0.45985,0.99633 -0.68977,1.26457 -0.22993,0.30656 -0.59397,0.45985 -1.09213,0.45985 -0.42153,0 -0.86222,-0.21077 -1.32206,-0.63229 -0.45984,-0.42152 -0.90053,-1.07297 -1.32205,-1.95434 -0.42153,-0.91969 -0.76641,-2.05014 -1.03465,-3.39135 -0.26825,-1.37953 -0.40237,-3.02731 -0.40236,-4.94334 -1e-5,-3.29554 0.30656,-6.30369 0.91968,-9.02445 0.61313,-2.72073 1.36038,-5.19239 2.24175,-7.415 0.88136,-2.26088 1.83937,-4.31102 2.87403,-6.15042 1.03464,-1.83935 1.95433,-3.50629 2.75907,-5.00082 0.30655,-0.61309 0.57479,-1.18789 0.80473,-1.72442 0.26823,-0.53644 0.49815,-1.07293 0.68976,-1.60945 -0.11497,-0.30653 -0.19161,-0.59393 -0.22992,-0.86221 -0.0383,-0.30652 -0.0575,-0.63225 -0.0575,-0.97717"
         style="fill:#2c2c2c;fill-opacity:1;stroke:none"
         id="path3935"
         inkscape:connector-curvature="0" />
      <path
         d="m 169.17787,792.65186 c -0.95804,0 -1.85857,-0.24909 -2.70159,-0.74725 -0.80476,-0.49817 -1.51368,-1.13045 -2.12678,-1.89686 -0.61316,-0.80473 -1.09216,-1.66693 -1.43702,-2.58663 -0.34491,-0.91968 -0.51735,-1.80105 -0.51732,-2.6441 -3e-5,-0.3832 0.0191,-0.82389 0.0575,-1.32206 0.0383,-0.49816 0.21073,-0.74724 0.51732,-0.74725 0.26822,10e-6 0.47898,-0.0958 0.63229,-0.2874 0.19157,-0.22991 0.3257,-0.51732 0.40236,-0.86221 0.11494,-0.34487 0.19158,-0.70892 0.22993,-1.09213 0.0383,-0.42151 0.0574,-0.82388 0.0575,-1.20709 -3e-5,-0.42152 -0.0384,-0.80472 -0.11496,-1.14961 -0.0767,-0.34488 -0.15331,-0.61312 -0.22993,-0.80473 -0.11499,-0.22991 -0.22995,-0.42151 -0.34488,-0.57481 -1.22628,10e-6 -2.41421,0.32574 -3.5638,0.97717 -1.11131,0.65146 -2.20344,1.47535 -3.27639,2.47167 -1.03467,0.95802 -2.05016,2.01183 -3.04648,3.16143 -0.99634,1.14962 -1.95435,2.22259 -2.87403,3.21892 -0.9197,0.95801 -1.82023,1.76274 -2.70158,2.41418 -0.84306,0.65145 -1.66695,0.97717 -2.47167,0.97717 -1.03466,0 -1.97351,-0.30656 -2.81655,-0.91969 -0.80473,-0.61312 -1.51366,-1.39869 -2.12678,-2.3567 -0.61313,-0.95801 -1.09214,-2.01182 -1.43702,-3.16144 -0.30656,-1.18792 -0.45984,-2.35669 -0.45984,-3.50631 0,-0.42152 0.0958,-0.6706 0.2874,-0.74725 0.1916,-0.11495 0.42152,-0.17243 0.68977,-0.17244 0.22992,10e-6 0.44068,-0.13411 0.63228,-0.40237 0.1916,-0.30655 0.34488,-0.68975 0.45985,-1.14961 0.15328,-0.45983 0.26824,-0.958 0.34488,-1.4945 0.0766,-0.57479 0.11496,-1.14959 0.11496,-1.72441 0,-0.15327 -0.0192,-0.34487 -0.0575,-0.57481 0,-0.26823 -0.0383,-0.40235 -0.11496,-0.40236 -0.1916,10e-6 -0.36405,0.0766 -0.51732,0.22992 -0.11497,0.1533 -0.22993,0.3449 -0.34489,0.5748 -0.11496,0.19162 -0.22992,0.36406 -0.34488,0.51733 -0.0766,0.1533 -0.17245,0.22994 -0.2874,0.22992 -0.19161,2e-5 -0.28741,-0.11494 -0.28741,-0.34488 0,-0.72807 0.0766,-1.45616 0.22993,-2.18426 0.15327,-0.72807 0.3832,-1.37952 0.68976,-1.95435 0.30656,-0.57478 0.68977,-1.03463 1.14962,-1.37953 0.45984,-0.38318 0.97716,-0.57478 1.55197,-0.57481 0.958,3e-5 1.82021,0.26827 2.58663,0.80473 0.7664,0.53651 1.437,1.2646 2.01182,2.18427 0.5748,0.9197 1.01548,1.97351 1.32205,3.16143 0.30656,1.14963 0.479,2.35672 0.51733,3.62128 1.5328,-1.18792 3.14226,-2.26089 4.82837,-3.21892 1.45616,-0.80471 3.08477,-1.55196 4.88585,-2.24174 1.83936,-0.68975 3.71706,-1.03463 5.6331,-1.03465 1.49447,2e-5 2.81652,0.45986 3.96616,1.37953 1.1879,0.88139 2.18423,1.99268 2.989,3.33388 0.80469,1.3029 1.41781,2.73992 1.83937,4.31104 0.42149,1.53283 0.63225,2.95068 0.63229,4.25357 -4e-5,0.91969 -0.115,1.83938 -0.34488,2.75907 -0.19164,0.88137 -0.4982,1.6861 -0.91969,2.41418 -0.42156,0.72809 -0.95805,1.32206 -1.60946,1.7819 -0.61316,0.45984 -1.34125,0.68977 -2.18426,0.68977"
         style="fill:#1b7fad;fill-opacity:1"
         id="path3937"
         inkscape:connector-curvature="0" />
      <path
         d="m 185.12425,770.63679 c -2.03099,-0.76639 -3.64045,-1.8202 -4.82837,-3.16144 -1.14962,-1.34119 -1.72442,-2.98896 -1.72442,-4.94333 0,-1.11126 0.40236,-2.06927 1.20709,-2.87403 0.80473,-0.8047 1.76274,-1.20706 2.87403,-1.20709 1.03465,3e-5 1.82021,0.28743 2.3567,0.86221 0.53648,0.53651 0.95801,1.14964 1.26458,1.83938 0.30655,0.68979 0.5748,1.3604 0.80473,2.01182 0.26823,0.65147 0.63227,1.073 1.09213,1.26457 1.1496,-2.22255 2.52913,-4.4643 4.1386,-6.72523 1.60944,-2.29919 3.42966,-4.36849 5.46066,-6.2079 2.03096,-1.83934 4.25354,-3.33384 6.66775,-4.48349 2.41416,-1.18789 4.98162,-1.78186 7.7024,-1.7819 1.30286,4e-5 2.39499,0.45989 3.2764,1.37953 0.91965,0.88142 1.37949,1.97355 1.37953,3.2764 -4e-5,0.65148 -0.13416,1.30293 -0.40236,1.95434 -0.22996,0.61316 -0.55569,1.18797 -0.97717,1.72442 -0.42157,0.4982 -0.91973,0.91972 -1.4945,1.26457 -0.53652,0.3066 -1.13049,0.45988 -1.7819,0.45985 -0.22995,3e-5 -0.57484,-0.0191 -1.03465,-0.0575 -0.42156,-0.0383 -0.8814,-0.13408 -1.37953,-0.2874 -0.4982,-0.19157 -0.99637,-0.45981 -1.4945,-0.80473 -0.49819,-0.34484 -0.93888,-0.82385 -1.32205,-1.43701 -1.57117,0.61316 -3.25726,2.1843 -5.0583,4.71341 -1.80108,2.52917 -3.42969,5.82473 -4.88585,9.88666 0.57479,0.11499 1.30287,0.21079 2.18426,0.28741 0.91967,0.0383 1.89684,0.0767 2.93151,0.11496 1.03463,0.0383 2.08844,0.0767 3.16144,0.11496 1.11126,2e-5 2.16507,2e-5 3.16143,0 0.30653,2e-5 0.59394,0.0575 0.86221,0.17244 0.30653,0.0767 0.45981,0.19162 0.45985,0.34488 -4e-5,0.68979 -0.53652,1.30292 -1.60946,1.83938 -1.073,0.53651 -2.37589,0.99635 -3.90868,1.37954 -1.49452,0.3449 -3.08482,0.6323 -4.77089,0.86221 -1.68612,0.19162 -3.14229,0.30658 -4.36853,0.34488 l -0.45984,1.26457 c -0.61315,1.68612 -1.37955,3.69793 -2.29923,6.03547 -0.9197,2.29923 -1.82023,4.96249 -2.70159,7.9898 -0.84306,2.98899 -1.57114,6.34202 -2.18426,10.05911 -0.61313,3.75538 -0.9197,7.87482 -0.91969,12.35833 -1e-5,0.91967 -0.0767,1.49447 -0.22992,1.72442 -0.11497,0.2299 -0.53649,0.34486 -1.26458,0.34488 -0.91969,-2e-5 -1.72442,-0.42155 -2.41418,-1.26457 -0.65145,-0.80475 -1.2071,-1.89688 -1.66694,-3.2764 -0.45984,-1.34123 -0.80473,-2.8932 -1.03465,-4.65593 -0.1916,-1.72443 -0.2874,-3.50632 -0.2874,-5.34569 0,-2.37587 0.15328,-4.8667 0.45984,-7.47248 0.30656,-2.56747 0.68977,-5.01997 1.14961,-7.35752 0.49817,-2.37586 1.01549,-4.50264 1.55198,-6.38035 0.53648,-1.87768 1.03465,-3.3147 1.4945,-4.31104 l 0.86221,-1.83938"
         style="fill:#2c2c2c;fill-opacity:1;stroke:none"
         id="path3939"
         inkscape:connector-curvature="0" />
      <path
         d="m 212.80026,771.38404 c -1e-5,1.22627 -0.0958,2.28008 -0.2874,3.16143 -0.1533,0.88138 -0.38322,1.82023 -0.68977,2.81655 -0.30658,0.99634 -0.67062,2.14595 -1.09213,3.44883 -0.42154,1.26459 -0.86222,2.8932 -1.32206,4.88586 -0.11497,0.42152 -0.19161,0.95801 -0.22992,1.60945 -1e-5,0.61313 -0.0767,1.22626 -0.22992,1.83938 -0.15329,0.57481 -0.40237,1.07297 -0.74725,1.4945 -0.30657,0.42152 -0.80473,0.63228 -1.4945,0.63228 -0.34488,0 -0.84305,-0.21076 -1.49449,-0.63228 -0.65145,-0.38321 -1.32206,-0.88137 -2.01182,-1.4945 -0.65145,-0.61312 -1.22626,-1.30289 -1.72442,-2.0693 -0.49817,-0.7664 -0.74725,-1.53281 -0.74725,-2.29922 0,-1.18793 0.24908,-2.3567 0.74725,-3.50632 0.53648,-1.18792 1.11129,-2.39501 1.72442,-3.62128 0.61312,-1.26456 1.16877,-2.60577 1.66694,-4.02364 0.53648,-1.45616 0.80472,-3.06561 0.80472,-4.82837 0,-0.49815 0.21076,-0.78555 0.63229,-0.86221 0.45984,-0.11494 0.82388,-0.17242 1.09213,-0.17244 1.83937,0.0383 3.19975,0.3449 4.08112,0.91969 0.88136,0.5365 1.32205,1.43703 1.32206,2.70159 m -4.02364,-15.40481 c -1e-5,-0.84301 0.17243,-1.64774 0.51732,-2.41418 0.3832,-0.80469 0.8622,-1.51362 1.43702,-2.12679 0.61311,-0.6514 1.32204,-1.16873 2.12678,-1.55197 0.80472,-0.38317 1.66692,-0.57477 2.58663,-0.57481 1.3412,4e-5 2.43333,0.42157 3.27639,1.26458 0.84303,0.80476 1.26456,1.83941 1.26457,3.10395 -1e-5,0.91972 -0.19162,1.78193 -0.5748,2.58663 -0.38322,0.80476 -0.90055,1.51368 -1.55198,2.12678 -0.61314,0.57484 -1.34123,1.03468 -2.18426,1.37953 -0.80474,0.34492 -1.62863,0.51736 -2.47167,0.51733 -1.34122,3e-5 -2.41419,-0.40234 -3.21891,-1.20709 -0.80474,-0.8047 -1.2071,-1.83935 -1.20709,-3.10396"
         style="fill:#2c2c2c;fill-opacity:1;stroke:none"
         id="path3941"
         inkscape:connector-curvature="0" />
      <path
         d="m 248.66277,792.65186 c -0.95804,0 -1.85857,-0.24909 -2.70159,-0.74725 -0.80475,-0.49817 -1.51368,-1.13045 -2.12678,-1.89686 -0.61315,-0.80473 -1.09216,-1.66693 -1.43701,-2.58663 -0.34491,-0.91968 -0.51736,-1.80105 -0.51733,-2.6441 -3e-5,-0.3832 0.0191,-0.82389 0.0575,-1.32206 0.0383,-0.49816 0.21074,-0.74724 0.51733,-0.74725 0.26821,10e-6 0.47897,-0.0958 0.63228,-0.2874 0.19158,-0.22991 0.3257,-0.51732 0.40237,-0.86221 0.11493,-0.34487 0.19157,-0.70892 0.22992,-1.09213 0.0383,-0.42151 0.0575,-0.82388 0.0575,-1.20709 -3e-5,-0.42152 -0.0383,-0.80472 -0.11496,-1.14961 -0.0767,-0.34488 -0.15331,-0.61312 -0.22992,-0.80473 -0.11499,-0.22991 -0.22995,-0.42151 -0.34489,-0.57481 -1.22628,10e-6 -2.41421,0.32574 -3.5638,0.97717 -1.11131,0.65146 -2.20344,1.47535 -3.27639,2.47167 -1.03467,0.95802 -2.05016,2.01183 -3.04647,3.16143 -0.99635,1.14962 -1.95436,2.22259 -2.87403,3.21892 -0.91971,0.95801 -1.82023,1.76274 -2.70159,2.41418 -0.84306,0.65145 -1.66695,0.97717 -2.47167,0.97717 -1.03466,0 -1.9735,-0.30656 -2.81655,-0.91969 -0.80473,-0.61312 -1.51366,-1.39869 -2.12678,-2.3567 -0.61313,-0.95801 -1.09213,-2.01182 -1.43701,-3.16144 -0.30657,-1.18792 -0.45985,-2.35669 -0.45985,-3.50631 0,-0.42152 0.0958,-0.6706 0.2874,-0.74725 0.1916,-0.11495 0.42153,-0.17243 0.68977,-0.17244 0.22992,10e-6 0.44068,-0.13411 0.63229,-0.40237 0.1916,-0.30655 0.34488,-0.68975 0.45984,-1.14961 0.15328,-0.45983 0.26824,-0.958 0.34489,-1.4945 0.0766,-0.57479 0.11495,-1.14959 0.11496,-1.72441 -1e-5,-0.15327 -0.0192,-0.34487 -0.0575,-0.57481 -10e-6,-0.26823 -0.0383,-0.40235 -0.11496,-0.40236 -0.19161,10e-6 -0.36405,0.0766 -0.51733,0.22992 -0.11496,0.1533 -0.22993,0.3449 -0.34488,0.5748 -0.11497,0.19162 -0.22993,0.36406 -0.34489,0.51733 -0.0766,0.1533 -0.17244,0.22994 -0.2874,0.22992 -0.1916,2e-5 -0.28741,-0.11494 -0.2874,-0.34488 -1e-5,-0.72807 0.0766,-1.45616 0.22992,-2.18426 0.15328,-0.72807 0.3832,-1.37952 0.68977,-1.95435 0.30656,-0.57478 0.68976,-1.03463 1.14961,-1.37953 0.45984,-0.38318 0.97716,-0.57478 1.55198,-0.57481 0.958,3e-5 1.82021,0.26827 2.58662,0.80473 0.7664,0.53651 1.43701,1.2646 2.01182,2.18427 0.5748,0.9197 1.01548,1.97351 1.32206,3.16143 0.30655,1.14963 0.47899,2.35672 0.51732,3.62128 1.53281,-1.18792 3.14226,-2.26089 4.82837,-3.21892 1.45616,-0.80471 3.08478,-1.55196 4.88586,-2.24174 1.83935,-0.68975 3.71705,-1.03463 5.6331,-1.03465 1.49446,2e-5 2.81651,0.45986 3.96616,1.37953 1.1879,0.88139 2.18423,1.99268 2.98899,3.33388 0.80469,1.3029 1.41782,2.73992 1.83938,4.31104 0.42148,1.53283 0.63225,2.95068 0.63228,4.25357 -3e-5,0.91969 -0.11499,1.83938 -0.34488,2.75907 -0.19164,0.88137 -0.4982,1.6861 -0.91969,2.41418 -0.42156,0.72809 -0.95804,1.32206 -1.60946,1.7819 -0.61316,0.45984 -1.34124,0.68977 -2.18426,0.68977"
         style="fill:#2c2c2c;fill-opacity:1;stroke:none"
         id="path3943"
         inkscape:connector-curvature="0" />
      <path
         style="fill:#2c2c2c;fill-opacity:1;stroke:none"
         d="m 269.49499,771.38404 c -10e-6,1.22627 -0.0958,2.28008 -0.2874,3.16143 -0.15329,0.88138 -0.38322,1.82023 -0.68977,2.81655 -0.30657,0.99634 -0.67062,2.14595 -1.09213,3.44883 -0.42153,1.26459 -0.86222,2.8932 -1.32205,4.88586 -0.11497,0.42152 -0.19161,0.95801 -0.22993,1.60945 0,0.61313 -0.0767,1.22626 -0.22992,1.83938 -0.15329,0.57481 -0.40237,1.07297 -0.74725,1.4945 -0.30657,0.42152 -0.80473,0.63228 -1.49449,0.63228 -0.34489,0 -0.84306,-0.21076 -1.4945,-0.63228 -0.65145,-0.38321 -1.32206,-0.88137 -2.01182,-1.4945 -0.65145,-0.61312 -1.22625,-1.30289 -1.72442,-2.0693 -0.49816,-0.7664 -0.74725,-1.53281 -0.74725,-2.29922 0,-1.18793 0.24909,-2.3567 0.74725,-3.50632 0.53649,-1.18792 1.11129,-2.39501 1.72442,-3.62128 0.61312,-1.26456 1.16877,-2.60577 1.66694,-4.02364 0.53648,-1.45616 0.80472,-3.06561 0.80473,-4.82837 -10e-6,-0.49815 0.21075,-0.78555 0.63228,-0.86221 0.45984,-0.11494 0.82389,-0.17242 1.09213,-0.17244 1.83938,0.0383 3.19975,0.3449 4.08113,0.91969 0.88136,0.5365 1.32204,1.43703 1.32205,2.70159"
         id="path3955"
         inkscape:connector-curvature="0" />
      <path
         style="fill:#e4b62d;fill-opacity:1"
         d="m 265.47135,755.97923 c -10e-6,-0.84301 0.17243,-1.64774 0.51732,-2.41418 0.3832,-0.80469 0.8622,-1.51362 1.43702,-2.12679 0.61312,-0.6514 1.32204,-1.16873 2.12678,-1.55197 0.80472,-0.38317 1.66693,-0.57477 2.58663,-0.57481 1.3412,4e-5 2.43333,0.42157 3.27639,1.26458 0.84303,0.80476 1.26456,1.83941 1.26458,3.10395 -2e-5,0.91972 -0.19162,1.78193 -0.57481,2.58663 -0.38322,0.80476 -0.90055,1.51368 -1.55198,2.12678 -0.61314,0.57484 -1.34122,1.03468 -2.18426,1.37953 -0.80474,0.34492 -1.62863,0.51736 -2.47166,0.51733 -1.34123,3e-5 -2.4142,-0.40234 -3.21892,-1.20709 -0.80473,-0.8047 -1.2071,-1.83935 -1.20709,-3.10396"
         id="path3945"
         inkscape:connector-curvature="0" />
      <path
         d="m 289.16503,750.11621 c -10e-6,-1.07293 0.24907,-1.97346 0.74725,-2.70159 0.53647,-0.76636 1.20708,-1.37949 2.01182,-1.83938 0.84303,-0.49812 1.80104,-0.86216 2.87403,-1.09213 1.07295,-0.2682 2.14592,-0.4598 3.21892,-0.5748 1.11126,-0.15324 2.16507,-0.22988 3.16143,-0.22993 1.03462,-0.0383 1.93515,-0.0574 2.70159,-0.0575 2.10759,5e-5 4.23437,0.13417 6.38035,0.40237 2.1459,0.26829 4.2152,0.70897 6.2079,1.32205 1.99262,0.57485 3.85116,1.3221 5.57562,2.24174 1.76269,0.91974 3.27634,2.03103 4.54097,3.33388 1.30284,1.30293 2.31833,2.81659 3.04647,4.54097 0.76635,1.68613 1.14956,3.58299 1.14961,5.69058 -5e-5,3.25726 -0.59402,6.28457 -1.7819,9.08193 -1.14966,2.79741 -2.7208,5.34571 -4.71341,7.64492 -1.99271,2.29924 -4.34941,4.34938 -7.07011,6.15043 -2.68247,1.80106 -5.53734,3.33388 -8.56461,4.59845 -3.02734,1.22625 -6.16961,2.14594 -9.42682,2.75907 -3.21894,0.65144 -6.38037,0.97716 -9.4843,0.97717 -2.6058,-10e-6 -4.94334,-0.30657 -7.01263,-0.91969 -2.03099,-0.61313 -3.77457,-1.3987 -5.23074,-2.35671 -1.45618,-0.99633 -2.56747,-2.12678 -3.33387,-3.39135 -0.76641,-1.26457 -1.14962,-2.5483 -1.14962,-3.8512 0,-0.22992 0.0192,-0.49816 0.0575,-0.80473 1e-5,-0.34488 0.22993,-0.51732 0.68977,-0.51733 0.22992,1e-5 0.55565,0.0958 0.97717,0.2874 0.45985,0.1533 0.97717,0.3449 1.55198,0.57481 0.5748,0.22993 1.20709,0.44069 1.89686,0.63229 0.72808,0.19161 1.47533,0.28741 2.24174,0.2874 2.37586,-2.91234 4.48348,-5.67141 6.32287,-8.27721 0.80471,-1.11127 1.57112,-2.24172 2.29922,-3.39135 0.76639,-1.14959 1.45616,-2.24172 2.0693,-3.2764 0.61311,-1.07294 1.11128,-2.05011 1.4945,-2.93151 0.38319,-0.88134 0.59395,-1.60943 0.63229,-2.18426 -0.0767,-0.0766 -0.1533,-0.19158 -0.22993,-0.34488 -0.1533,-0.30654 -0.22994,-0.6131 -0.22992,-0.91969 -2e-5,-0.88134 0.30655,-1.62859 0.91969,-2.24175 0.65143,-0.61309 1.49448,-0.91966 2.52915,-0.91969 0.49814,3e-5 0.97715,0.17248 1.43701,0.51733 0.45982,0.34491 0.86219,0.82392 1.2071,1.43701 0.34485,0.57484 0.6131,1.2646 0.80472,2.0693 0.19158,0.76644 0.28738,1.59033 0.28741,2.47167 -3e-5,1.91604 -0.34491,3.85122 -1.03465,5.80554 -0.65147,1.91604 -1.37956,3.67878 -2.18427,5.28822 -0.95803,1.87771 -2.031,3.69793 -3.21891,5.46066 1.99264,0 4.10026,-0.22992 6.32287,-0.68977 2.22255,-0.45984 4.40681,-1.13044 6.55279,-2.01182 2.18422,-0.88136 4.27268,-1.91601 6.26538,-3.10396 1.99262,-1.22623 3.7362,-2.60577 5.23074,-4.1386 1.53277,-1.5328 2.73986,-3.18057 3.62127,-4.94333 0.91965,-1.76271 1.37949,-3.62125 1.37954,-5.57562 -5e-5,-2.14591 -0.51737,-3.94697 -1.55198,-5.40318 -0.99637,-1.45614 -2.31843,-2.62491 -3.96616,-3.50631 -1.6095,-0.88133 -3.41055,-1.49446 -5.40318,-1.83938 -1.99269,-0.38317 -3.96619,-0.57477 -5.9205,-0.57481 -1.2646,4e-5 -2.39505,0.115 -3.39135,0.34488 -0.99636,0.19165 -1.93521,0.45989 -2.81655,0.80473 -3e-5,0.72813 -0.15331,1.4179 -0.45985,2.0693 -0.26827,0.61317 -0.65147,1.16881 -1.14961,1.66694 -0.49819,0.45988 -1.07299,0.82393 -1.72442,1.09213 -0.61315,0.26828 -1.28375,0.4024 -2.01182,0.40237 -1.49451,3e-5 -2.75909,-0.51729 -3.79372,-1.55198 -1.03467,-1.03461 -1.55199,-2.29918 -1.55198,-3.79372"
         style="fill:#2c2c2c;fill-opacity:1;stroke:none"
         id="path3947"
         inkscape:connector-curvature="0" />
      <path
         d="m 343.58031,790.98492 c -1.45618,0 -2.85488,-0.32572 -4.19608,-0.97717 -1.3029,-0.68977 -2.47167,-1.59029 -3.50632,-2.70159 -0.99633,-1.11128 -1.80106,-2.41418 -2.41418,-3.90868 -0.57481,-1.49449 -0.86221,-3.06562 -0.86221,-4.71341 0,-1.99265 0.6706,-3.67874 2.01182,-5.05829 1.37953,-1.41784 3.06563,-2.56745 5.05829,-3.44884 1.99265,-0.88135 4.10027,-1.51363 6.32287,-1.89686 2.22257,-0.38318 4.19606,-0.57478 5.9205,-0.5748 0.61311,2e-5 1.30287,0.0383 2.0693,0.11496 0.76639,0.0767 1.47531,0.21078 2.12678,0.40236 0.68975,0.15331 1.26455,0.40239 1.72442,0.74725 0.45982,0.30658 0.68974,0.70895 0.68977,1.20709 -3e-5,0.80475 -0.42155,1.80108 -1.26457,2.98899 -0.84308,1.14963 -1.85857,2.26092 -3.04648,3.33388 -1.18795,1.07298 -2.4142,1.99267 -3.67875,2.75907 -1.22627,0.76642 -2.26092,1.14962 -3.10396,1.14961 -0.42154,10e-6 -0.90054,-0.0383 -1.43701,-0.11496 -0.5365,-0.11495 -1.09215,-0.22991 -1.66694,-0.34488 -0.5365,-0.15328 -1.05382,-0.30656 -1.55198,-0.45985 -0.45985,-0.19159 -0.86221,-0.36403 -1.20709,-0.51732 -0.38321,0.42153 -0.70893,0.95802 -0.97717,1.60945 -0.26825,0.61314 -0.40237,1.16878 -0.40236,1.66694 -1e-5,0.26825 0.21075,0.47901 0.63228,0.63229 0.45984,0.15328 0.99632,0.26825 1.60946,0.34488 0.65144,0.0383 1.32204,0.0766 2.01182,0.11496 0.68976,10e-6 1.26456,10e-6 1.72442,0 1.26456,10e-6 2.64409,-0.15327 4.1386,-0.45984 1.49448,-0.34488 2.98897,-0.74724 4.48349,-1.2071 1.49447,-0.49815 2.95065,-1.01548 4.36853,-1.55197 1.41782,-0.5748 2.70156,-1.09212 3.8512,-1.55198 1.1879,-0.49815 2.18423,-0.90052 2.98899,-1.20709 0.80469,-0.34487 1.36034,-0.51731 1.66694,-0.51733 0.19156,2e-5 0.30652,0.0958 0.34488,0.28741 0.0766,0.15329 0.11493,0.26825 0.11496,0.34488 -3e-5,0.0383 -0.44072,0.40238 -1.32205,1.09213 -0.84308,0.68978 -1.97354,1.55199 -3.39136,2.58663 -1.37956,0.99634 -2.9507,2.06931 -4.71341,3.21891 -1.76276,1.14962 -3.56382,2.22259 -5.40318,3.21892 -1.80107,0.95801 -3.56381,1.76274 -5.28821,2.41418 -1.68611,0.65145 -3.16145,0.97717 -4.42601,0.97717 m 5.40318,-19.19852 c -1.45619,2e-5 -2.7016,0.49818 -3.73624,1.4945 -0.99634,0.99634 -1.83939,2.18427 -2.52915,3.56379 0.45984,2e-5 1.07296,-0.15327 1.83938,-0.45984 0.7664,-0.30655 1.49449,-0.68976 2.18427,-1.14961 0.72807,-0.45983 1.36035,-0.958 1.89686,-1.4945 0.53646,-0.57479 0.80471,-1.13043 0.80472,-1.66694 -10e-6,-0.19158 -0.15329,-0.28738 -0.45984,-0.2874"
         style="fill:#dd5448;fill-opacity:1"
         id="path3949"
         inkscape:connector-curvature="0" />
      <path
         d="m 367.86587,769.83206 c 1.41785,2e-5 2.56746,0.42154 3.44883,1.26457 0.88137,0.80475 1.57113,1.8394 2.06931,3.10395 0.53647,1.22627 0.90052,2.56749 1.09213,4.02365 0.19159,1.41786 0.28739,2.75908 0.2874,4.02364 1.30288,-0.61312 2.72074,-1.51365 4.25357,-2.70159 1.57112,-1.18792 3.12309,-2.47165 4.65592,-3.8512 1.57112,-1.41784 3.10394,-2.85485 4.59845,-4.31104 1.49447,-1.45616 2.85485,-2.77821 4.08113,-3.96617 1.22622,-1.18791 2.26087,-2.16507 3.10395,-2.93151 0.84302,-0.76638 1.41782,-1.14958 1.72442,-1.14961 0.19157,3e-5 0.30653,0.0767 0.34488,0.22992 0.0766,0.15331 0.11493,0.26827 0.11496,0.34489 -3e-5,0.42155 -0.24911,1.14963 -0.74725,2.18426 -0.49819,1.03467 -1.1688,2.26092 -2.01182,3.67876 -0.84308,1.37955 -1.85857,2.89321 -3.04647,4.54097 -1.14964,1.64779 -2.39505,3.29556 -3.73624,4.94333 -1.34124,1.60946 -2.73993,3.1806 -4.19608,4.71341 -1.4562,1.53282 -2.91237,2.89319 -4.36853,4.08112 -1.41787,1.14961 -2.81656,2.0693 -4.19608,2.75907 -1.34123,0.72809 -2.6058,1.09213 -3.79372,1.09213 -0.61314,0 -1.28374,-0.26824 -2.01182,-0.80473 -0.68978,-0.53648 -1.34122,-1.18793 -1.95435,-1.95434 -0.5748,-0.80472 -1.05381,-1.64777 -1.43701,-2.52914 -0.38321,-0.88137 -0.57481,-1.66694 -0.57481,-2.35671 0,-0.91968 0.0575,-1.68609 0.17245,-2.29922 0.15328,-0.61312 0.30656,-1.20709 0.45984,-1.7819 0.1916,-0.61312 0.34488,-1.28372 0.45984,-2.01182 0.15328,-0.72808 0.22993,-1.68609 0.22993,-2.87403 0,-0.45983 -0.13413,-1.07296 -0.40237,-1.83938 -0.26824,-0.76639 -0.40236,-1.437 -0.40236,-2.01182 0,-0.45983 0.21076,-0.84303 0.63229,-1.14962 0.42152,-0.30654 0.80472,-0.45982 1.14961,-0.45984"
         style="fill:#2c2c2c;fill-opacity:1;stroke:none"
         id="path3951"
         inkscape:connector-curvature="0" />
    </g>
    <path
       style="fill:#2c2c2c;fill-opacity:1;stroke:none"
       d="m 278.97969,886.77155 c 123.54829,-102.22168 294.84771,-10.98292 152.89233,50.63196 -19.76475,8.57876 -15.5092,-5.85999 -2.06113,-11.4272 101.82114,-42.15153 0.75277,-130.10435 -144.57775,-29.69906 -16.4067,11.33502 -10.48551,-6.00417 -6.25345,-9.5057 z"
       id="path3116-7-7"
       inkscape:connector-curvature="0"
       sodipodi:nodetypes="sssss" />
    <path
       style="fill:#2c2c2c;fill-opacity:1;stroke:none"
       d="M 221.80742,988.55443 C 98.25912,1090.7762 -73.040286,999.5373 68.915089,937.92246 c 19.764745,-8.57875 15.5092,5.86001 2.061133,11.4272 -101.82115,42.15153 -0.752775,130.10434 144.577738,29.69906 16.40671,-11.33501 10.48552,6.00418 6.25346,9.50571 z"
       id="path3116-7-7-2"
       inkscape:connector-curvature="0"
       sodipodi:nodetypes="sssss" />
  </g>
</svg>
